PathFileType	4	(X/Y/Z)	E:\Qualisys_Data\Carbon_Farble_Plate\Data\Amateur_Runner\S14\T1\S14T1V14_c3d.trc
DataRate	CameraRate	NumFrames	NumMarkers	Units	OrigDataRate	OrigDataStartFrame	OrigNumFrames
200.000000	200.000000	4	39	mm	200.000000	0	344
Frame#	Time	LSHO			RSHO			LICST			RICST			LASIS			LHEEL			RASIS			LTROC			RTROC			SACR			LTH1			LSK4			LTH2			LTH3			RHM5			LSK2			LTH4			RTH1			LTOE			RTH2			RTH3			RTH4			LLEP			RLEP			LSK1			LSK3			RSK1			LHM5			RSK2			LFT1			RSK3			RSK4			LLME			RLME			RTOE			RHEEL			RFT1			RFT2			LFT2			
		X1	Y1	Z1	X2	Y2	Z2	X3	Y3	Z3	X4	Y4	Z4	X5	Y5	Z5	X6	Y6	Z6	X7	Y7	Z7	X8	Y8	Z8	X9	Y9	Z9	X10	Y10	Z10	X11	Y11	Z11	X12	Y12	Z12	X13	Y13	Z13	X14	Y14	Z14	X15	Y15	Z15	X16	Y16	Z16	X17	Y17	Z17	X18	Y18	Z18	X19	Y19	Z19	X20	Y20	Z20	X21	Y21	Z21	X22	Y22	Z22	X23	Y23	Z23	X24	Y24	Z24	X25	Y25	Z25	X26	Y26	Z26	X27	Y27	Z27	X28	Y28	Z28	X29	Y29	Z29	X30	Y30	Z30	X31	Y31	Z31	X32	Y32	Z32	X33	Y33	Z33	X34	Y34	Z34	X35	Y35	Z35	X36	Y36	Z36	X37	Y37	Z37	X38	Y38	Z38	X39	Y39	Z39	

1	0	-2581.29150390625	1475.953735351562	-498.5914916992188	-2631.060302734375	1480.591430664062	-204.0896759033203	-2662.144287109375	1030.031860351562	-481.1838989257812	-2651.328125	1039.859985351562	-203.8677062988281	-2626.26318359375	977.1421508789062	-453.9852600097656	-3151.95556640625	269.4757690429688	-370.7096252441406	-2626.39501953125	996.6277465820312	-222.0701446533203	-2789.1318359375	927.8577270507812	-491.8663635253906	-2764.856689453125	948.4940185546875	-171.4237976074219	-2792.491943359375	1047.271118164062	-349.9173278808594	-2778.8896484375	695.9124145507812	-498.3398742675781	-3030.62646484375	412.6606140136719	-447.8049621582031	-2850.572998046875	721.580078125	-474.1756286621094	-2799.77294921875	600.7455444335938	-473.917236328125	-2531.62255859375	117.6726455688477	-175.2125854492188	-2971.320068359375	490.8619689941406	-464.177734375	-2875.155517578125	627.3740234375	-455.5644226074219	-2543.763671875	753.7317504882812	-177.3919830322266	-3014.473388671875	65.88385772705078	-395.02490234375	-2614.206787109375	725.3410034179688	-165.09130859375	-2501.344482421875	666.0430908203125	-202.0611114501953	-2575.67236328125	631.837646484375	-182.9084930419922	-2857.151611328125	545.881103515625	-464.6517639160156	-2535.535888671875	575.0233154296875	-188.9395446777344	-2905.255126953125	442.0237426757812	-465.4580688476562	-2968.3349609375	361.7703857421875	-454.198974609375	-2537.4462890625	450.3861999511719	-182.3888549804688	-3075.195068359375	94.96330261230469	-453.0547790527344	-2620.127685546875	469.2413940429688	-183.4203186035156	-3160.5341796875	246.9612426757812	-340.42041015625	-2565.403564453125	351.4989929199219	-194.6666870117188	-2641.248779296875	375.4677734375	-194.0765075683594	-3104.418212890625	242.0065765380859	-430.1620178222656	-2651.836181640625	194.1924896240234	-212.1788177490234	-2454.056396484375	119.3983459472656	-232.0564422607422	-2713.7880859375	173.8215026855469	-269.6741638183594	-2692.576171875	140.8215789794922	-297.1063842773438	-2709.434814453125	148.6688995361328	-241.8690490722656	-3176.1318359375	249.0233764648438	-393.6619873046875
2	0.005	-2565.317626953125	1479.131713867188	-497.3800048828125	-2615.919921875	1483.511962890625	-203.3171997070312	-2644.747802734375	1032.6083984375	-480.8200988769531	-2634.595947265625	1042.91064453125	-203.7077026367188	-2609.36083984375	979.3645629882812	-453.1398620605469	-3138.921142578125	277.6258544921875	-372.2596740722656	-2608.8486328125	999.864990234375	-221.2466430664062	-2772.48193359375	931.1080322265624	-491.5181884765625	-2748.226318359375	951.6535034179688	-171.0735473632812	-2775.652099609375	1049.844116210938	-349.875	-2765.886474609375	700.603759765625	-497.4440612792969	-3019.774658203125	417.6746520996094	-447.7847900390625	-2836.94482421875	725.6526489257812	-473.91064453125	-2788.263427734375	605.1734008789062	-473.8494567871094	-2499.46923828125	117.8899993896484	-175.1475524902344	-2960.00439453125	496.072021484375	-463.3817749023438	-2862.587890625	632.09521484375	-455.2759094238281	-2527.989501953125	754.8794555664062	-176.8185272216797	-3011.574462890625	63.19076538085938	-395.9145812988281	-2599.970947265625	726.6658935546875	-166.0315399169922	-2487.304443359375	666.1793212890625	-201.5224304199219	-2562.168701171875	633.0027465820312	-183.2314758300781	-2845.30078125	550.1454467773438	-465.1653137207031	-2522.002685546875	575.833740234375	-189.8988494873047	-2894.003662109375	446.6615600585938	-466.0926208496094	-2957.43017578125	366.7706298828125	-455.5802307128906	-2518.31787109375	451.2714538574219	-182.2053070068359	-3070.38427734375	97.3230438232422	-453.0353393554688	-2604.183349609375	466.3549499511719	-184.2272796630859	-3147.577392578125	255.1331787109375	-341.442138671875	-2543.541748046875	351.0852661132812	-193.8333282470703	-2620.427490234375	371.8333129882812	-194.752685546875	-3093.419189453125	247.7525177001953	-431.5800476074219	-2622.845947265625	189.3022155761719	-212.0057678222656	-2421.14892578125	123.5515823364258	-231.6828460693359	-2682.958984375	166.8422546386719	-269.59814453125	-2661.063232421875	134.9987640380859	-297.2140808105469	-2677.509033203125	141.4566345214844	-241.44921875	-3163.99365234375	257.8433227539062	-394.6419982910156
3	0.01	-2548.773681640625	1481.696655273438	-495.96484375	-2601.093994140625	1485.5126953125	-202.8083953857422	-2627.969970703125	1034.843383789062	-480.4323120117188	-2618.262939453125	1044.89404296875	-203.4475250244141	-2592.562744140625	981.5452270507812	-453.3581848144531	-3125.3857421875	285.4701843261719	-374.3044738769531	-2592.635498046875	1002.35400390625	-220.8789367675781	-2756.09814453125	934.1298217773438	-491.4811706542969	-2731.107177734375	954.2590942382812	-170.9391479492188	-2758.56640625	1052.551635742188	-349.8142700195312	-2752.06103515625	703.62646484375	-498.5399475097656	-3008.211181640625	423.0867919921875	-448.1028137207031	-2823.138916015625	730.0465698242188	-473.425537109375	-2775.38623046875	608.7308349609375	-473.9193115234375	-2466.114013671875	119.3399429321289	-174.8707733154297	-2948.364013671875	500.8104248046875	-462.8146362304688	-2849.45166015625	636.2481079101562	-455.1953125	-2514.62451171875	755.9904174804688	-176.0755310058594	-3010.1064453125	62.15515899658203	-395.6330871582031	-2586.139892578125	728.0115356445312	-166.8175964355469	-2473.6572265625	666.8110961914062	-201.6474304199219	-2547.788818359375	633.7960815429688	-183.88671875	-2833.610107421875	555.147216796875	-465.5317687988281	-2508.722900390625	575.19677734375	-191.1753234863281	-2883.02880859375	452.0252075195312	-466.9358825683594	-2945.620361328125	371.12109375	-455.9978942871094	-2500.705322265625	451.4791259765625	-182.4785766601562	-3065.80859375	100.6540603637695	-452.7087097167969	-2585.58056640625	463.3385009765625	-183.4654541015625	-3135.709228515625	264.5089721679688	-343.2958374023438	-2520.20849609375	350.4906005859375	-194.0487060546875	-2598.48974609375	368.103759765625	-194.8357238769531	-3082.319580078125	252.8625946044922	-433.2283020019531	-2594.423095703125	185.0417327880859	-212.1377105712891	-2388.87744140625	128.5853576660156	-231.3099517822266	-2652.6640625	160.4384460449219	-269.9657287597656	-2629.013671875	128.7152709960938	-297.2443237304688	-2646.412109375	134.4219665527344	-241.4792175292969	-3151.204345703125	266.9037780761719	-396.1525268554688
4	0.015	-2533.378173828125	1484.54150390625	-495.278076171875	-2586.50146484375	1487.620361328125	-202.3772583007812	-2610.73828125	1036.719604492188	-479.9749145507812	-2601.728271484375	1047.0751953125	-203.1335906982422	-2575.784912109375	982.9102172851562	-452.4713439941406	-3111.543701171875	292.6075134277344	-375.6181030273438	-2575.9228515625	1004.115356445312	-220.4768524169922	-2739.739013671875	937.014892578125	-491.4761962890625	-2714.027099609375	956.4109497070312	-170.5412139892578	-2741.49951171875	1054.690185546875	-349.6950988769531	-2737.79150390625	706.6876831054688	-498.5783386230469	-2996.026123046875	427.2800598144531	-447.5054931640625	-2808.552734375	733.6102905273438	-472.715087890625	-2762.93017578125	612.536376953125	-475.3615112304688	-2433.968505859375	120.9553527832031	-174.7254791259766	-2936.080322265625	506.0328979492188	-462.8389282226562	-2835.70849609375	640.0509643554688	-454.86181640625	-2500.136962890625	755.8768310546875	-175.7368774414062	-3007.10107421875	60.88203430175781	-396.4311218261719	-2572.361083984375	728.3203735351562	-168.1703643798828	-2459.47216796875	666.8128051757812	-202.0503234863281	-2535.8330078125	633.9263916015625	-184.9641723632812	-2821.24267578125	558.9801635742188	-464.9528198242188	-2494.748046875	575.2230834960938	-191.2610626220703	-2870.89501953125	456.0984802246094	-466.7078857421875	-2934.2158203125	376.1900329589844	-456.9528503417969	-2481.912109375	451.7795715332031	-182.5501861572266	-3060.863525390625	104.8690185546875	-453.1307983398438	-2567.580322265625	459.7794494628906	-184.7784271240234	-3122.597900390625	272.3690185546875	-344.170654296875	-2497.608642578125	349.9366760253906	-194.0348510742188	-2576.7646484375	363.9990539550781	-194.8561248779297	-3071.1865234375	258.299072265625	-434.3681640625	-2562.9111328125	181.4648895263672	-211.9784545898438	-2357.78173828125	133.9416046142578	-231.4482879638672	-2621.346435546875	153.8470306396484	-269.1776428222656	-2597.3310546875	122.9304580688477	-296.9567565917969	-2614.59375	128.5457763671875	-240.9697875976562	-3138.30078125	275.7769470214844	-397.3678283691406
